<svg width="400" height="100" viewBox="0 0 400 100" fill="none" xmlns="http://www.w3.org/2000/svg">
  <rect width="400" height="100" rx="16" fill="#FF3C00"/>
  <!-- Trophy icon -->
  <g transform="translate(20, 18)">
    <!-- Cup body -->
    <path d="M32 8H16C16 8 12 8 12 14C12 20 16 24 22 26V32H14V36H34V32H26V26C32 24 36 20 36 14C36 8 32 8 32 8Z" fill="white"/>
    <!-- Handles -->
    <path d="M12 14H8C8 14 6 14 6 18C6 22 8 22 10 22" stroke="white" stroke-width="2" fill="none" stroke-linecap="round"/>
    <path d="M36 14H40C40 14 42 14 42 18C42 22 40 22 38 22" stroke="white" stroke-width="2" fill="none" stroke-linecap="round"/>
    <!-- Base -->
    <rect x="14" y="36" width="20" height="4" rx="2" fill="white"/>
  </g>
  <!-- RankYatra text -->
  <text x="80" y="62" font-family="Arial, sans-serif" font-size="42" font-weight="900" fill="white" letter-spacing="-1">RankYatra</text>
</svg>
